<?xml version="1.0" encoding="UTF-8"?>
<!DOCTYPE svg PUBLIC "-//W3C//DTD SVG 1.1//EN" "http://www.w3.org/Graphics/SVG/1.1/DTD/svg11.dtd">
<svg xmlns="http://www.w3.org/2000/svg" version="1.1" width="418px" height="280px" style="shape-rendering:geometricPrecision; text-rendering:geometricPrecision; image-rendering:optimizeQuality; fill-rule:evenodd; clip-rule:evenodd" xmlns:xlink="http://www.w3.org/1999/xlink">
<g><path style="opacity:1" fill="#fefefe" d="M -0.5,-0.5 C 138.833,-0.5 278.167,-0.5 417.5,-0.5C 417.5,92.8333 417.5,186.167 417.5,279.5C 278.167,279.5 138.833,279.5 -0.5,279.5C -0.5,186.167 -0.5,92.8333 -0.5,-0.5 Z"/></g>
<g><path style="opacity:1" fill="#070305" d="M 178.5,141.5 C 178.771,157.195 178.437,172.862 177.5,188.5C 176.641,191.452 174.641,193.285 171.5,194C 152.17,194.5 132.836,194.667 113.5,194.5C 113.5,150.5 113.5,106.5 113.5,62.5C 132.17,62.3334 150.836,62.5001 169.5,63C 173.862,63.692 176.696,66.192 178,70.5C 178.667,83.8333 178.667,97.1667 178,110.5C 175.192,117.308 170.359,122.141 163.5,125C 167.951,127.783 172.117,130.95 176,134.5C 177.903,136.441 178.736,138.774 178.5,141.5 Z"/></g>
<g><path style="opacity:1" fill="#0d0208" d="M 225.5,62.5 C 231.833,62.5 238.167,62.5 244.5,62.5C 244.5,106.5 244.5,150.5 244.5,194.5C 238.167,194.5 231.833,194.5 225.5,194.5C 225.5,150.5 225.5,106.5 225.5,62.5 Z"/></g>
<g><path style="opacity:1" fill="#0d0208" d="M 258.5,62.5 C 264.833,62.5 271.167,62.5 277.5,62.5C 277.5,106.5 277.5,150.5 277.5,194.5C 271.167,194.5 264.833,194.5 258.5,194.5C 258.5,150.5 258.5,106.5 258.5,62.5 Z"/></g>
<g><path style="opacity:1" fill="#060004" d="M 79.5,76.5 C 85.8333,76.5 92.1667,76.5 98.5,76.5C 98.5,83.1667 98.5,89.8333 98.5,96.5C 92.1667,96.5 85.8333,96.5 79.5,96.5C 79.5,89.8333 79.5,83.1667 79.5,76.5 Z"/></g>
<g><path style="opacity:1" fill="#060004" d="M 192.5,76.5 C 198.833,76.5 205.167,76.5 211.5,76.5C 211.5,83.1667 211.5,89.8333 211.5,96.5C 205.167,96.5 198.833,96.5 192.5,96.5C 192.5,89.8333 192.5,83.1667 192.5,76.5 Z"/></g>
<g><path style="opacity:1" fill="#fdfdfa" d="M 133.5,79.5 C 141.833,79.5 150.167,79.5 158.5,79.5C 158.667,90.1719 158.5,100.839 158,111.5C 150.865,117.105 142.698,119.105 133.5,117.5C 133.5,104.833 133.5,92.1667 133.5,79.5 Z"/></g>
<g><path style="opacity:1" fill="#0d0208" d="M 79.5,109.5 C 85.8333,109.5 92.1667,109.5 98.5,109.5C 98.5,137.833 98.5,166.167 98.5,194.5C 92.1667,194.5 85.8333,194.5 79.5,194.5C 79.5,166.167 79.5,137.833 79.5,109.5 Z"/></g>
<g><path style="opacity:1" fill="#0d0208" d="M 192.5,109.5 C 198.833,109.5 205.167,109.5 211.5,109.5C 211.5,137.833 211.5,166.167 211.5,194.5C 205.167,194.5 198.833,194.5 192.5,194.5C 192.5,166.167 192.5,137.833 192.5,109.5 Z"/></g>
<g><path style="opacity:1" fill="#fcf9f5" d="M 133.5,133.5 C 142.895,131.847 151.228,133.847 158.5,139.5C 159.499,152.149 159.832,164.816 159.5,177.5C 150.833,177.5 142.167,177.5 133.5,177.5C 133.5,162.833 133.5,148.167 133.5,133.5 Z"/></g>
<g><path style="opacity:1" fill="#63aef5" d="M 178.5,141.5 C 179.661,156.328 179.828,171.328 179,186.5C 178.722,187.416 178.222,188.082 177.5,188.5C 178.437,172.862 178.771,157.195 178.5,141.5 Z"/></g>
<g><path style="opacity:1" fill="#29131a" d="M 151.5,196.5 C 152.5,196.5 153.5,196.5 154.5,196.5C 154.5,203.5 154.5,210.5 154.5,217.5C 151.911,216.562 149.411,216.229 147,216.5C 146.333,212.833 146.333,209.167 147,205.5C 148.356,204.62 149.856,204.286 151.5,204.5C 151.5,201.833 151.5,199.167 151.5,196.5 Z"/></g>
<g><path style="opacity:1" fill="#22111f" d="M 162.5,196.5 C 163.5,196.5 164.5,196.5 165.5,196.5C 165.183,199.572 165.516,202.572 166.5,205.5C 167.72,204.289 168.887,204.289 170,205.5C 170.667,209.167 170.667,212.833 170,216.5C 167.619,217.435 165.119,217.768 162.5,217.5C 162.5,210.5 162.5,203.5 162.5,196.5 Z"/></g>
<g><path style="opacity:1" fill="#1b1425" d="M 191.5,212.5 C 191.638,207.586 190.972,202.919 189.5,198.5C 189.821,196.952 190.821,196.285 192.5,196.5C 192.765,200.853 193.265,205.187 194,209.5C 194.955,205.098 196.121,200.764 197.5,196.5C 197.833,197.5 198.167,198.5 198.5,199.5C 197.498,205.513 196.498,211.513 195.5,217.5C 194.5,217.5 193.5,217.5 192.5,217.5C 192.784,215.585 192.451,213.919 191.5,212.5 Z"/></g>
<g><path style="opacity:1" fill="#280f1c" d="M 201.5,196.5 C 204.187,196.336 206.854,196.503 209.5,197C 210.406,198.699 210.739,200.533 210.5,202.5C 209.5,202.5 208.5,202.5 207.5,202.5C 207.5,201.5 207.5,200.5 207.5,199.5C 206.167,199.5 204.833,199.5 203.5,199.5C 203.5,204.5 203.5,209.5 203.5,214.5C 204.833,214.5 206.167,214.5 207.5,214.5C 207.442,211.336 206.776,208.336 205.5,205.5C 207.167,205.5 208.833,205.5 210.5,205.5C 210.665,209.182 210.499,212.848 210,216.5C 207.263,217.61 204.429,217.777 201.5,217C 200.184,210.167 200.184,203.334 201.5,196.5 Z"/></g>
<g><path style="opacity:1" fill="#291421" d="M 219.5,196.5 C 222.448,196.223 225.281,196.556 228,197.5C 228.81,204.082 228.643,210.582 227.5,217C 224.571,217.777 221.737,217.61 219,216.5C 218.208,209.753 218.374,203.086 219.5,196.5 Z"/></g>
<g><path style="opacity:1" fill="#27101a" d="M 246.5,196.5 C 255.081,194.916 258.415,198.416 256.5,207C 258.415,215.584 255.081,219.084 246.5,217.5C 246.5,210.5 246.5,203.5 246.5,196.5 Z"/></g>
<g><path style="opacity:1" fill="#f3f7e8" d="M 221.5,199.5 C 222.833,199.5 224.167,199.5 225.5,199.5C 225.5,204.5 225.5,209.5 225.5,214.5C 224.167,214.5 222.833,214.5 221.5,214.5C 221.5,209.5 221.5,204.5 221.5,199.5 Z"/></g>
<g><path style="opacity:1" fill="#ebf4ed" d="M 249.5,199.5 C 250.833,199.5 252.167,199.5 253.5,199.5C 253.5,204.5 253.5,209.5 253.5,214.5C 252.167,214.5 250.833,214.5 249.5,214.5C 249.5,209.5 249.5,204.5 249.5,199.5 Z"/></g>
<g><path style="opacity:1" fill="#291808" d="M 240.5,200.5 C 241.5,200.5 242.5,200.5 243.5,200.5C 243.449,202.57 244.115,204.403 245.5,206C 244.493,207.52 243.827,209.187 243.5,211C 244.091,213.239 244.758,215.406 245.5,217.5C 243.856,217.714 242.356,217.38 241,216.5C 239.97,211.12 239.804,205.786 240.5,200.5 Z"/></g>
<g><path style="opacity:1" fill="#23111f" d="M 82.5,204.5 C 85.0889,205.438 87.5889,205.771 90,205.5C 90.6667,209.167 90.6667,212.833 90,216.5C 88.6439,217.38 87.1439,217.714 85.5,217.5C 85.5,219.5 85.5,221.5 85.5,223.5C 84.5,223.5 83.5,223.5 82.5,223.5C 82.5,217.167 82.5,210.833 82.5,204.5 Z"/></g>
<g><path style="opacity:1" fill="#1f1017" d="M 117.5,204.5 C 123.927,202.762 126.594,205.095 125.5,211.5C 123.833,211.5 122.167,211.5 120.5,211.5C 120.281,212.675 120.614,213.675 121.5,214.5C 122.736,213.754 124.07,213.421 125.5,213.5C 125.5,214.833 125.5,216.167 125.5,217.5C 122.881,217.768 120.381,217.435 118,216.5C 117.501,212.514 117.334,208.514 117.5,204.5 Z"/></g>
<g><path style="opacity:1" fill="#1f1220" d="M 127.5,204.5 C 129.584,205.248 131.584,205.248 133.5,204.5C 134.833,206.167 134.833,207.833 133.5,209.5C 132.808,208.975 132.308,208.308 132,207.5C 130.595,210.619 130.095,213.952 130.5,217.5C 129.5,217.5 128.5,217.5 127.5,217.5C 127.5,213.167 127.5,208.833 127.5,204.5 Z"/></g>
<g><path style="opacity:1" fill="#1f1017" d="M 136.5,204.5 C 142.927,202.762 145.594,205.095 144.5,211.5C 142.833,211.5 141.167,211.5 139.5,211.5C 139.281,212.675 139.614,213.675 140.5,214.5C 141.736,213.754 143.07,213.421 144.5,213.5C 144.5,214.833 144.5,216.167 144.5,217.5C 141.881,217.768 139.381,217.435 137,216.5C 136.501,212.514 136.334,208.514 136.5,204.5 Z"/></g>
<g><path style="opacity:1" fill="#22121c" d="M 174.5,204.5 C 174.802,207.373 175.469,210.039 176.5,212.5C 177.117,212.389 177.617,212.056 178,211.5C 178.497,209.19 178.663,206.857 178.5,204.5C 179.5,204.5 180.5,204.5 181.5,204.5C 180.163,210.854 178.83,217.187 177.5,223.5C 175.821,223.715 174.821,223.048 174.5,221.5C 175.902,217.71 175.569,214.044 173.5,210.5C 173.481,208.94 173.148,207.44 172.5,206C 172.836,204.97 173.503,204.47 174.5,204.5 Z"/></g>
<g><path style="opacity:1" fill="#1d071a" d="M 230.5,204.5 C 232.104,207.403 233.104,210.737 233.5,214.5C 234.167,214.167 234.833,213.833 235.5,213.5C 236.167,210.5 236.833,207.5 237.5,204.5C 238.833,208.833 238.833,213.167 237.5,217.5C 235.329,217.273 233.162,216.94 231,216.5C 230.501,212.514 230.334,208.514 230.5,204.5 Z"/></g>
<g><path style="opacity:1" fill="#1f1017" d="M 258.5,204.5 C 264.927,202.762 267.594,205.095 266.5,211.5C 264.833,211.5 263.167,211.5 261.5,211.5C 261.281,212.675 261.614,213.675 262.5,214.5C 263.736,213.754 265.07,213.421 266.5,213.5C 266.5,214.833 266.5,216.167 266.5,217.5C 263.881,217.768 261.381,217.435 259,216.5C 258.501,212.514 258.334,208.514 258.5,204.5 Z"/></g>
<g><path style="opacity:1" fill="#20111d" d="M 268.5,204.5 C 269.5,204.5 270.5,204.5 271.5,204.5C 271.678,207.216 272.178,209.883 273,212.5C 274.072,209.782 275.238,207.115 276.5,204.5C 276.947,208.554 276.281,212.554 274.5,216.5C 273.675,217.386 272.675,217.719 271.5,217.5C 270.707,213.12 269.707,208.786 268.5,204.5 Z"/></g>
<g><path style="opacity:1" fill="#281921" d="M 92.5,204.5 C 95.1667,204.5 97.8333,204.5 100.5,204.5C 100.5,208.833 100.5,213.167 100.5,217.5C 97.8806,217.768 95.3806,217.435 93,216.5C 92.5012,212.514 92.3345,208.514 92.5,204.5 Z"/></g>
<g><path style="opacity:1" fill="#d19956" d="M 189.5,198.5 C 190.972,202.919 191.638,207.586 191.5,212.5C 190.028,208.081 189.362,203.414 189.5,198.5 Z"/></g>
<g><path style="opacity:1" fill="#f3fee2" d="M 149.5,207.5 C 151.978,209.483 152.145,211.816 150,214.5C 149.503,212.19 149.337,209.857 149.5,207.5 Z"/></g>
<g><path style="opacity:1" fill="#3d69b2" d="M 174.5,204.5 C 176.223,206.78 176.889,209.447 176.5,212.5C 175.469,210.039 174.802,207.373 174.5,204.5 Z"/></g>
<g><path style="opacity:1" fill="#eefbe3" d="M 86.5,207.5 C 87.7969,209.693 87.7969,212.027 86.5,214.5C 85.2857,212.141 85.2857,209.808 86.5,207.5 Z"/></g>
<g><path style="opacity:1" fill="#fafae2" d="M 95.5,207.5 C 96.7251,208.152 97.3917,209.319 97.5,211C 97.1667,212.167 96.8333,213.333 96.5,214.5C 95.5258,212.257 95.1924,209.924 95.5,207.5 Z"/></g>
<g><path style="opacity:1" fill="#eefbe3" d="M 166.5,207.5 C 167.797,209.693 167.797,212.027 166.5,214.5C 165.286,212.141 165.286,209.808 166.5,207.5 Z"/></g>
<g><path style="opacity:1" fill="#9f8c74" d="M 120.5,207.5 C 121.5,207.5 122.5,207.5 123.5,207.5C 123.5,208.5 123.5,209.5 123.5,210.5C 122.5,210.5 121.5,210.5 120.5,210.5C 120.5,209.5 120.5,208.5 120.5,207.5 Z"/></g>
<g><path style="opacity:1" fill="#9f8c74" d="M 139.5,207.5 C 140.5,207.5 141.5,207.5 142.5,207.5C 142.5,208.5 142.5,209.5 142.5,210.5C 141.5,210.5 140.5,210.5 139.5,210.5C 139.5,209.5 139.5,208.5 139.5,207.5 Z"/></g>
<g><path style="opacity:1" fill="#9f8c74" d="M 261.5,207.5 C 262.5,207.5 263.5,207.5 264.5,207.5C 264.5,208.5 264.5,209.5 264.5,210.5C 263.5,210.5 262.5,210.5 261.5,210.5C 261.5,209.5 261.5,208.5 261.5,207.5 Z"/></g>
<g><path style="opacity:1" fill="#241425" d="M 102.5,204.5 C 103.5,204.5 104.5,204.5 105.5,204.5C 105.576,216.355 106.243,216.355 107.5,204.5C 108.5,204.5 109.5,204.5 110.5,204.5C 111.812,216.413 112.479,216.413 112.5,204.5C 113.5,204.5 114.5,204.5 115.5,204.5C 115.252,208.906 114.585,213.24 113.5,217.5C 112.5,217.5 111.5,217.5 110.5,217.5C 109.578,208.247 108.578,208.247 107.5,217.5C 106.5,217.5 105.5,217.5 104.5,217.5C 103.993,213.14 103.327,208.807 102.5,204.5 Z"/></g>
<g><path style="opacity:1" fill="#e8b46d" d="M 173.5,210.5 C 175.569,214.044 175.902,217.71 174.5,221.5C 174.448,217.802 174.114,214.135 173.5,210.5 Z"/></g>
</svg>
